# xmcd
# Track frame offsets:
# 150
# 14300
# 29725
# 40900
# 57075
# 70050
# 81175
# 94900
# 104550
# 117625
# 132675
# 144900
#
# Disc length: 2157 seconds
# Revision: 0
# Processed by: cddbd v1.4PL0 Copyright (c) Steve Scherf et al.
# Submitted via: VisiTrax 2.9.5.180 - For more info visit www.synapsa.com
#
DISCID=ae086b0c
DTITLE=Anni Filt and Countrysun - Tall dark stranger
DYEAR=1900
DGENRE=
TTITLE0=Two more bottles of wine
TTITLE1=Midnight angel
TTITLE2=I don't wanna spoil the party
TTITLE3=Won't you (tell me)
TTITLE4=Whiskey, if you were a woman
TTITLE5=Don't be cruel
TTITLE6=Tall dark stranger
TTITLE7=You ain't woman enough to take my man
TTITLE8=Eighteen wheels and a dozen roses
TTITLE9=Baby ride easy
TTITLE10=Too late for loving
TTITLE11=Sweet dreams
EXTD=
EXTT0=
EXTT1=
EXTT2=
EXTT3=
EXTT4=
EXTT5=
EXTT6=
EXTT7=
EXTT8=
EXTT9=
EXTT10=
EXTT11=
PLAYORDER=
